<mxfile host="app.diagrams.net" modified="2021-05-18T18:24:24.322Z" agent="5.0 (X11; Linux x86_64) AppleWebKit/537.36 (KHTML, like Gecko) Chrome/91.0.4472.57 Safari/537.36 Edg/91.0.864.27" etag="yQ1iUte9YgyjJmYfPU_5" version="14.6.13" type="github">
  <diagram id="wbUrWV88NQnN1DrHN1Fw" name="Page-1">
    <mxGraphModel dx="2443" dy="860" grid="1" gridSize="10" guides="1" tooltips="1" connect="1" arrows="1" fold="1" page="1" pageScale="1" pageWidth="827" pageHeight="1169" math="0" shadow="0">
      <root>
        <mxCell id="0" />
        <mxCell id="1" parent="0" />
        <mxCell id="GYPpSZBRfct1Y0kYMT_Y-1" value="ID" style="rounded=0;whiteSpace=wrap;html=1;fontStyle=4" parent="1" vertex="1">
          <mxGeometry x="160" y="250" width="80" height="30" as="geometry" />
        </mxCell>
        <mxCell id="GYPpSZBRfct1Y0kYMT_Y-2" value="Club" style="rounded=0;whiteSpace=wrap;html=1;" parent="1" vertex="1">
          <mxGeometry x="240" y="250" width="80" height="30" as="geometry" />
        </mxCell>
        <mxCell id="GYPpSZBRfct1Y0kYMT_Y-3" value="&lt;b&gt;PLAYER&lt;/b&gt;" style="rounded=0;whiteSpace=wrap;html=1;" parent="1" vertex="1">
          <mxGeometry x="-80" y="250" width="120" height="30" as="geometry" />
        </mxCell>
        <mxCell id="GYPpSZBRfct1Y0kYMT_Y-7" value="ID" style="rounded=0;whiteSpace=wrap;html=1;fontStyle=4" parent="1" vertex="1">
          <mxGeometry x="160" y="410" width="80" height="30" as="geometry" />
        </mxCell>
        <mxCell id="GYPpSZBRfct1Y0kYMT_Y-8" value="Name" style="rounded=0;whiteSpace=wrap;html=1;fontStyle=0" parent="1" vertex="1">
          <mxGeometry x="240" y="410" width="80" height="30" as="geometry" />
        </mxCell>
        <mxCell id="GYPpSZBRfct1Y0kYMT_Y-9" value="MID" style="rounded=0;whiteSpace=wrap;html=1;fontStyle=4" parent="1" vertex="1">
          <mxGeometry x="240" y="570" width="80" height="30" as="geometry" />
        </mxCell>
        <mxCell id="GYPpSZBRfct1Y0kYMT_Y-17" value="TEAM" style="rounded=0;whiteSpace=wrap;html=1;fontStyle=1" parent="1" vertex="1">
          <mxGeometry x="-80" y="410" width="120" height="30" as="geometry" />
        </mxCell>
        <mxCell id="GYPpSZBRfct1Y0kYMT_Y-18" value="MATCH" style="rounded=0;whiteSpace=wrap;html=1;fontStyle=1" parent="1" vertex="1">
          <mxGeometry x="-80" y="570" width="120" height="30" as="geometry" />
        </mxCell>
        <mxCell id="GYPpSZBRfct1Y0kYMT_Y-31" value="Position" style="rounded=0;whiteSpace=wrap;html=1;" parent="1" vertex="1">
          <mxGeometry x="320" y="250" width="80" height="30" as="geometry" />
        </mxCell>
        <mxCell id="GYPpSZBRfct1Y0kYMT_Y-32" value="&lt;span&gt;ShirtNumber&lt;/span&gt;" style="rounded=0;whiteSpace=wrap;html=1;" parent="1" vertex="1">
          <mxGeometry x="400" y="250" width="80" height="30" as="geometry" />
        </mxCell>
        <mxCell id="GYPpSZBRfct1Y0kYMT_Y-46" value="&lt;span class=&quot;fontstyle0&quot;&gt;&lt;b&gt;&lt;font style=&quot;font-size: 16px&quot;&gt;SOCCER MANAGEMENT SYSTEM RELATIONAL SCHEMA&lt;/font&gt;&lt;/b&gt;&lt;/span&gt;" style="text;html=1;strokeColor=none;fillColor=none;align=center;verticalAlign=middle;whiteSpace=wrap;rounded=0;" parent="1" vertex="1">
          <mxGeometry x="60" y="30" width="530" height="40" as="geometry" />
        </mxCell>
        <mxCell id="GYPpSZBRfct1Y0kYMT_Y-47" value="USER" style="rounded=0;whiteSpace=wrap;html=1;fontStyle=1" parent="1" vertex="1">
          <mxGeometry x="-80" y="170" width="120" height="30" as="geometry" />
        </mxCell>
        <mxCell id="GYPpSZBRfct1Y0kYMT_Y-48" value="Name" style="rounded=0;whiteSpace=wrap;html=1;fontStyle=0" parent="1" vertex="1">
          <mxGeometry x="240" y="170" width="80" height="30" as="geometry" />
        </mxCell>
        <mxCell id="GYPpSZBRfct1Y0kYMT_Y-49" value="&lt;span&gt;ID&lt;/span&gt;" style="rounded=0;whiteSpace=wrap;html=1;fontStyle=4" parent="1" vertex="1">
          <mxGeometry x="160" y="170" width="80" height="30" as="geometry" />
        </mxCell>
        <mxCell id="GYPpSZBRfct1Y0kYMT_Y-51" value="DOB" style="rounded=0;whiteSpace=wrap;html=1;" parent="1" vertex="1">
          <mxGeometry x="320" y="170" width="80" height="30" as="geometry" />
        </mxCell>
        <mxCell id="GYPpSZBRfct1Y0kYMT_Y-52" value="Address" style="rounded=0;whiteSpace=wrap;html=1;" parent="1" vertex="1">
          <mxGeometry x="400" y="170" width="80" height="30" as="geometry" />
        </mxCell>
        <mxCell id="GYPpSZBRfct1Y0kYMT_Y-55" value="ID" style="rounded=0;whiteSpace=wrap;html=1;fontStyle=4" parent="1" vertex="1">
          <mxGeometry x="160" y="330" width="80" height="30" as="geometry" />
        </mxCell>
        <mxCell id="GYPpSZBRfct1Y0kYMT_Y-56" value="Nationality" style="rounded=0;whiteSpace=wrap;html=1;" parent="1" vertex="1">
          <mxGeometry x="240" y="330" width="80" height="30" as="geometry" />
        </mxCell>
        <mxCell id="GYPpSZBRfct1Y0kYMT_Y-57" value="&lt;b&gt;COACH TEAM&lt;/b&gt;" style="rounded=0;whiteSpace=wrap;html=1;" parent="1" vertex="1">
          <mxGeometry x="-80" y="330" width="120" height="30" as="geometry" />
        </mxCell>
        <mxCell id="GYPpSZBRfct1Y0kYMT_Y-58" value="Position" style="rounded=0;whiteSpace=wrap;html=1;" parent="1" vertex="1">
          <mxGeometry x="320" y="330" width="80" height="30" as="geometry" />
        </mxCell>
        <mxCell id="GYPpSZBRfct1Y0kYMT_Y-65" value="Win" style="rounded=0;whiteSpace=wrap;html=1;" parent="1" vertex="1">
          <mxGeometry x="400" y="410" width="80" height="30" as="geometry" />
        </mxCell>
        <mxCell id="GYPpSZBRfct1Y0kYMT_Y-66" value="Draw" style="rounded=0;whiteSpace=wrap;html=1;" parent="1" vertex="1">
          <mxGeometry x="480" y="410" width="80" height="30" as="geometry" />
        </mxCell>
        <mxCell id="GYPpSZBRfct1Y0kYMT_Y-67" value="Achievement" style="rounded=0;whiteSpace=wrap;html=1;" parent="1" vertex="1">
          <mxGeometry x="320" y="410" width="80" height="30" as="geometry" />
        </mxCell>
        <mxCell id="GYPpSZBRfct1Y0kYMT_Y-68" value="Loss" style="rounded=0;whiteSpace=wrap;html=1;" parent="1" vertex="1">
          <mxGeometry x="560" y="410" width="80" height="30" as="geometry" />
        </mxCell>
        <mxCell id="GYPpSZBRfct1Y0kYMT_Y-69" value="Name" style="rounded=0;whiteSpace=wrap;html=1;" parent="1" vertex="1">
          <mxGeometry x="240" y="489.5" width="80" height="30" as="geometry" />
        </mxCell>
        <mxCell id="GYPpSZBRfct1Y0kYMT_Y-70" value="Days" style="rounded=0;whiteSpace=wrap;html=1;" parent="1" vertex="1">
          <mxGeometry x="320" y="489.5" width="80" height="30" as="geometry" />
        </mxCell>
        <mxCell id="GYPpSZBRfct1Y0kYMT_Y-72" value="LEAGUE" style="rounded=0;whiteSpace=wrap;html=1;fontStyle=1" parent="1" vertex="1">
          <mxGeometry x="-80" y="489.5" width="120" height="30" as="geometry" />
        </mxCell>
        <mxCell id="GYPpSZBRfct1Y0kYMT_Y-73" value="ID" style="rounded=0;whiteSpace=wrap;html=1;fontStyle=4" parent="1" vertex="1">
          <mxGeometry x="160" y="489.5" width="80" height="30" as="geometry" />
        </mxCell>
        <mxCell id="GYPpSZBRfct1Y0kYMT_Y-75" value="Name" style="rounded=0;whiteSpace=wrap;html=1;" parent="1" vertex="1">
          <mxGeometry x="320" y="570" width="80" height="30" as="geometry" />
        </mxCell>
        <mxCell id="GYPpSZBRfct1Y0kYMT_Y-76" value="Stadium" style="rounded=0;whiteSpace=wrap;html=1;" parent="1" vertex="1">
          <mxGeometry x="400" y="570" width="80" height="30" as="geometry" />
        </mxCell>
        <mxCell id="GYPpSZBRfct1Y0kYMT_Y-77" value="Date" style="rounded=0;whiteSpace=wrap;html=1;" parent="1" vertex="1">
          <mxGeometry x="480" y="570" width="80" height="30" as="geometry" />
        </mxCell>
        <mxCell id="GYPpSZBRfct1Y0kYMT_Y-86" value="Weight" style="rounded=0;whiteSpace=wrap;html=1;" parent="1" vertex="1">
          <mxGeometry x="480" y="250" width="80" height="30" as="geometry" />
        </mxCell>
        <mxCell id="GYPpSZBRfct1Y0kYMT_Y-87" value="Height" style="rounded=0;whiteSpace=wrap;html=1;" parent="1" vertex="1">
          <mxGeometry x="560" y="250" width="80" height="30" as="geometry" />
        </mxCell>
        <mxCell id="GYPpSZBRfct1Y0kYMT_Y-88" value="Goals" style="rounded=0;whiteSpace=wrap;html=1;" parent="1" vertex="1">
          <mxGeometry x="720" y="250" width="80" height="30" as="geometry" />
        </mxCell>
        <mxCell id="GYPpSZBRfct1Y0kYMT_Y-89" value="NoMatches" style="rounded=0;whiteSpace=wrap;html=1;" parent="1" vertex="1">
          <mxGeometry x="800" y="250" width="80" height="30" as="geometry" />
        </mxCell>
        <mxCell id="GYPpSZBRfct1Y0kYMT_Y-90" value="Condition" style="rounded=0;whiteSpace=wrap;html=1;" parent="1" vertex="1">
          <mxGeometry x="640" y="250" width="80" height="30" as="geometry" />
        </mxCell>
        <mxCell id="GYPpSZBRfct1Y0kYMT_Y-91" value="Penalty cards" style="rounded=0;whiteSpace=wrap;html=1;" parent="1" vertex="1">
          <mxGeometry x="880" y="250" width="80" height="30" as="geometry" />
        </mxCell>
        <mxCell id="GYPpSZBRfct1Y0kYMT_Y-92" value="Bid amount" style="rounded=0;whiteSpace=wrap;html=1;" parent="1" vertex="1">
          <mxGeometry x="960" y="250" width="80" height="30" as="geometry" />
        </mxCell>
        <mxCell id="GYPpSZBRfct1Y0kYMT_Y-93" value="PID" style="rounded=0;whiteSpace=wrap;html=1;fontStyle=4" parent="1" vertex="1">
          <mxGeometry x="160" y="650" width="80" height="30" as="geometry" />
        </mxCell>
        <mxCell id="GYPpSZBRfct1Y0kYMT_Y-94" value="GATHERS" style="rounded=0;whiteSpace=wrap;html=1;fontStyle=1" parent="1" vertex="1">
          <mxGeometry x="-80" y="650" width="120" height="30" as="geometry" />
        </mxCell>
        <mxCell id="GYPpSZBRfct1Y0kYMT_Y-95" value="&lt;u&gt;TID&lt;/u&gt;" style="rounded=0;whiteSpace=wrap;html=1;" parent="1" vertex="1">
          <mxGeometry x="240" y="650" width="80" height="30" as="geometry" />
        </mxCell>
        <mxCell id="GYPpSZBRfct1Y0kYMT_Y-96" value="Date" style="rounded=0;whiteSpace=wrap;html=1;" parent="1" vertex="1">
          <mxGeometry x="400" y="650" width="80" height="30" as="geometry" />
        </mxCell>
        <mxCell id="GYPpSZBRfct1Y0kYMT_Y-97" value="Location" style="rounded=0;whiteSpace=wrap;html=1;" parent="1" vertex="1">
          <mxGeometry x="480" y="650" width="80" height="30" as="geometry" />
        </mxCell>
        <mxCell id="GYPpSZBRfct1Y0kYMT_Y-98" value="" style="endArrow=none;html=1;exitX=0;exitY=0.75;exitDx=0;exitDy=0;entryX=1;entryY=0.75;entryDx=0;entryDy=0;" parent="1" source="GYPpSZBRfct1Y0kYMT_Y-93" target="GYPpSZBRfct1Y0kYMT_Y-95" edge="1">
          <mxGeometry width="50" height="50" relative="1" as="geometry">
            <mxPoint x="880" y="510" as="sourcePoint" />
            <mxPoint x="930" y="460" as="targetPoint" />
          </mxGeometry>
        </mxCell>
        <mxCell id="GYPpSZBRfct1Y0kYMT_Y-99" value="CID" style="rounded=0;whiteSpace=wrap;html=1;fontStyle=4" parent="1" vertex="1">
          <mxGeometry x="640" y="410" width="80" height="30" as="geometry" />
        </mxCell>
        <mxCell id="GYPpSZBRfct1Y0kYMT_Y-100" value="LID" style="rounded=0;whiteSpace=wrap;html=1;fontStyle=4" parent="1" vertex="1">
          <mxGeometry x="160" y="570" width="80" height="30" as="geometry" />
        </mxCell>
        <mxCell id="GYPpSZBRfct1Y0kYMT_Y-101" value="" style="endArrow=none;html=1;exitX=0;exitY=0.75;exitDx=0;exitDy=0;entryX=0;entryY=0.75;entryDx=0;entryDy=0;" parent="1" source="GYPpSZBRfct1Y0kYMT_Y-100" target="GYPpSZBRfct1Y0kYMT_Y-75" edge="1">
          <mxGeometry width="50" height="50" relative="1" as="geometry">
            <mxPoint x="169.99999999999977" y="682.5" as="sourcePoint" />
            <mxPoint x="330" y="682.5" as="targetPoint" />
          </mxGeometry>
        </mxCell>
        <mxCell id="GYPpSZBRfct1Y0kYMT_Y-103" value="TID" style="rounded=0;whiteSpace=wrap;html=1;fontStyle=4" parent="1" vertex="1">
          <mxGeometry x="160" y="740" width="80" height="30" as="geometry" />
        </mxCell>
        <mxCell id="GYPpSZBRfct1Y0kYMT_Y-104" value="TAKES PART IN" style="rounded=0;whiteSpace=wrap;html=1;fontStyle=1" parent="1" vertex="1">
          <mxGeometry x="-80" y="740" width="120" height="30" as="geometry" />
        </mxCell>
        <mxCell id="GYPpSZBRfct1Y0kYMT_Y-105" value="&lt;u&gt;MID&lt;/u&gt;" style="rounded=0;whiteSpace=wrap;html=1;" parent="1" vertex="1">
          <mxGeometry x="240" y="740" width="80" height="30" as="geometry" />
        </mxCell>
        <mxCell id="GYPpSZBRfct1Y0kYMT_Y-109" value="PID" style="rounded=0;whiteSpace=wrap;html=1;fontStyle=4" parent="1" vertex="1">
          <mxGeometry x="320" y="740" width="80" height="30" as="geometry" />
        </mxCell>
        <mxCell id="GYPpSZBRfct1Y0kYMT_Y-110" value="" style="endArrow=none;html=1;exitX=0;exitY=0.75;exitDx=0;exitDy=0;entryX=1;entryY=0.75;entryDx=0;entryDy=0;" parent="1" edge="1">
          <mxGeometry width="50" height="50" relative="1" as="geometry">
            <mxPoint x="159.99999999999977" y="762.5" as="sourcePoint" />
            <mxPoint x="400" y="762.5" as="targetPoint" />
          </mxGeometry>
        </mxCell>
        <mxCell id="GYPpSZBRfct1Y0kYMT_Y-112" value="" style="curved=1;endArrow=classic;html=1;exitX=0;exitY=0.5;exitDx=0;exitDy=0;entryX=0.5;entryY=1;entryDx=0;entryDy=0;" parent="1" source="GYPpSZBRfct1Y0kYMT_Y-1" target="GYPpSZBRfct1Y0kYMT_Y-49" edge="1">
          <mxGeometry width="50" height="50" relative="1" as="geometry">
            <mxPoint x="370" y="180" as="sourcePoint" />
            <mxPoint x="200" y="120" as="targetPoint" />
            <Array as="points">
              <mxPoint x="130" y="240" />
              <mxPoint x="190" y="240" />
            </Array>
          </mxGeometry>
        </mxCell>
        <mxCell id="GYPpSZBRfct1Y0kYMT_Y-113" value="" style="curved=1;endArrow=classic;html=1;exitX=0;exitY=0.5;exitDx=0;exitDy=0;entryX=0;entryY=0.5;entryDx=0;entryDy=0;" parent="1" source="GYPpSZBRfct1Y0kYMT_Y-55" target="GYPpSZBRfct1Y0kYMT_Y-49" edge="1">
          <mxGeometry width="50" height="50" relative="1" as="geometry">
            <mxPoint x="170" y="275" as="sourcePoint" />
            <mxPoint x="210" y="130" as="targetPoint" />
            <Array as="points">
              <mxPoint x="110" y="290" />
              <mxPoint x="120" y="160" />
            </Array>
          </mxGeometry>
        </mxCell>
        <mxCell id="GYPpSZBRfct1Y0kYMT_Y-115" value="" style="curved=1;endArrow=classic;html=1;exitX=0.5;exitY=0;exitDx=0;exitDy=0;entryX=0.5;entryY=1;entryDx=0;entryDy=0;" parent="1" source="GYPpSZBRfct1Y0kYMT_Y-99" target="GYPpSZBRfct1Y0kYMT_Y-55" edge="1">
          <mxGeometry width="50" height="50" relative="1" as="geometry">
            <mxPoint x="410" y="390" as="sourcePoint" />
            <mxPoint x="450" y="245" as="targetPoint" />
            <Array as="points">
              <mxPoint x="370" y="380" />
              <mxPoint x="300" y="390" />
            </Array>
          </mxGeometry>
        </mxCell>
        <mxCell id="GYPpSZBRfct1Y0kYMT_Y-116" value="" style="curved=1;endArrow=classic;html=1;exitX=0.5;exitY=0;exitDx=0;exitDy=0;entryX=0;entryY=0.75;entryDx=0;entryDy=0;" parent="1" source="GYPpSZBRfct1Y0kYMT_Y-100" target="GYPpSZBRfct1Y0kYMT_Y-73" edge="1">
          <mxGeometry width="50" height="50" relative="1" as="geometry">
            <mxPoint x="200" y="550" as="sourcePoint" />
            <mxPoint x="240" y="405" as="targetPoint" />
            <Array as="points">
              <mxPoint x="100" y="540" />
            </Array>
          </mxGeometry>
        </mxCell>
        <mxCell id="GYPpSZBRfct1Y0kYMT_Y-117" value="" style="curved=1;endArrow=classic;html=1;exitX=0.5;exitY=0;exitDx=0;exitDy=0;entryX=0.5;entryY=1;entryDx=0;entryDy=0;" parent="1" source="GYPpSZBRfct1Y0kYMT_Y-95" target="GYPpSZBRfct1Y0kYMT_Y-7" edge="1">
          <mxGeometry width="50" height="50" relative="1" as="geometry">
            <mxPoint x="250" y="620" as="sourcePoint" />
            <mxPoint x="290" y="475" as="targetPoint" />
            <Array as="points">
              <mxPoint x="680" y="630" />
              <mxPoint x="640" y="500" />
            </Array>
          </mxGeometry>
        </mxCell>
        <mxCell id="GYPpSZBRfct1Y0kYMT_Y-118" value="" style="curved=1;endArrow=classic;html=1;exitX=0;exitY=0.5;exitDx=0;exitDy=0;entryX=0;entryY=0.5;entryDx=0;entryDy=0;" parent="1" source="GYPpSZBRfct1Y0kYMT_Y-93" target="GYPpSZBRfct1Y0kYMT_Y-1" edge="1">
          <mxGeometry width="50" height="50" relative="1" as="geometry">
            <mxPoint x="100" y="610" as="sourcePoint" />
            <mxPoint x="140" y="465" as="targetPoint" />
            <Array as="points">
              <mxPoint x="110" y="575" />
              <mxPoint x="90" y="525" />
            </Array>
          </mxGeometry>
        </mxCell>
        <mxCell id="GYPpSZBRfct1Y0kYMT_Y-119" value="" style="curved=1;endArrow=classic;html=1;entryX=0;entryY=0.5;entryDx=0;entryDy=0;" parent="1" target="GYPpSZBRfct1Y0kYMT_Y-7" edge="1">
          <mxGeometry width="50" height="50" relative="1" as="geometry">
            <mxPoint x="160" y="760" as="sourcePoint" />
            <mxPoint x="170" y="275" as="targetPoint" />
            <Array as="points">
              <mxPoint x="120" y="585" />
              <mxPoint x="120" y="535" />
            </Array>
          </mxGeometry>
        </mxCell>
        <mxCell id="GYPpSZBRfct1Y0kYMT_Y-120" value="" style="curved=1;endArrow=classic;html=1;exitX=0.5;exitY=1;exitDx=0;exitDy=0;entryX=0;entryY=1;entryDx=0;entryDy=0;" parent="1" source="GYPpSZBRfct1Y0kYMT_Y-109" target="GYPpSZBRfct1Y0kYMT_Y-1" edge="1">
          <mxGeometry width="50" height="50" relative="1" as="geometry">
            <mxPoint x="180" y="685" as="sourcePoint" />
            <mxPoint x="180" y="285" as="targetPoint" />
            <Array as="points">
              <mxPoint x="70" y="840" />
              <mxPoint x="110" y="545" />
            </Array>
          </mxGeometry>
        </mxCell>
        <mxCell id="GYPpSZBRfct1Y0kYMT_Y-121" value="" style="curved=1;endArrow=classic;html=1;exitX=0.5;exitY=0;exitDx=0;exitDy=0;entryX=0.5;entryY=1;entryDx=0;entryDy=0;" parent="1" source="GYPpSZBRfct1Y0kYMT_Y-105" target="GYPpSZBRfct1Y0kYMT_Y-9" edge="1">
          <mxGeometry width="50" height="50" relative="1" as="geometry">
            <mxPoint x="290" y="660" as="sourcePoint" />
            <mxPoint x="210" y="450" as="targetPoint" />
            <Array as="points">
              <mxPoint x="530" y="710" />
              <mxPoint x="850" y="650" />
            </Array>
          </mxGeometry>
        </mxCell>
        <mxCell id="8kwFJr1Bx8VxHPNsYSyI-1" value="Password" style="rounded=0;whiteSpace=wrap;html=1;" parent="1" vertex="1">
          <mxGeometry x="480" y="170" width="80" height="30" as="geometry" />
        </mxCell>
        <mxCell id="WXQLdG8sxNOYgzqbpLQ1-1" value="Name" style="rounded=0;whiteSpace=wrap;html=1;" vertex="1" parent="1">
          <mxGeometry x="320" y="650" width="80" height="30" as="geometry" />
        </mxCell>
        <mxCell id="WXQLdG8sxNOYgzqbpLQ1-2" value="NoMatches" style="rounded=0;whiteSpace=wrap;html=1;" vertex="1" parent="1">
          <mxGeometry x="400" y="330" width="80" height="30" as="geometry" />
        </mxCell>
        <mxCell id="WXQLdG8sxNOYgzqbpLQ1-3" value="Bid amount" style="rounded=0;whiteSpace=wrap;html=1;" vertex="1" parent="1">
          <mxGeometry x="480" y="330" width="80" height="30" as="geometry" />
        </mxCell>
      </root>
    </mxGraphModel>
  </diagram>
</mxfile>
